<svg width="1376" height="256" viewBox="0 0 1376 256" fill="none" xmlns="http://www.w3.org/2000/svg">
<circle cx="136" cy="129" r="100" fill="#00ED64"/>
<path d="M145.681 86.3815C141.001 80.8711 136.97 75.2356 136.151 74.0792C136.134 74.0547 136.111 74.0348 136.085 74.021C136.059 74.0072 136.029 74 135.999 74C135.97 74 135.94 74.0072 135.914 74.021C135.888 74.0348 135.865 74.0548 135.848 74.0792C135.029 75.2357 130.999 80.8712 126.32 86.3815C86.2141 137.368 132.65 171.768 132.65 171.768L133.026 172.029C133.378 177.351 134.253 185 134.253 185H137.747C137.747 185 138.618 177.384 138.972 172.063L139.351 171.768C139.351 171.768 185.786 137.368 145.681 86.3815ZM136 171.02H136C136 171.02 133.918 169.248 133.356 168.361L133.351 168.265L135.869 112.755C135.871 112.722 135.885 112.69 135.909 112.667C135.934 112.643 135.966 112.63 136 112.63C136.034 112.63 136.066 112.643 136.091 112.667C136.115 112.69 136.129 112.722 136.131 112.755L138.649 168.265L138.644 168.36C138.082 169.248 136 171.02 136 171.02Z" fill="#06232E"/>
<path d="M347.8 112.6C333 106.2 324.8 98.4 324.8 84.4C324.8 68.6 337 59.8 354.6 59.8C360.4 59.8 365 60.6 369.6 62.8L378 93.6H389.2L390.6 62.2C380.2 55.4 367.4 51 351.8 51C321.6 51 300 66 300 92.4C300 115.4 314.4 128.4 339.6 139.4L348.8 143.4C366.4 150.8 373.2 157.8 373.2 171.8C373.2 188.4 360.8 198 340.4 198C332 198 325.6 197 318.8 194L310.4 161.8H299.2L298 195C309.2 202.2 326.4 206.8 343 206.8C377.6 206.8 398.2 189.4 398.2 163.2C398.2 141.6 387.4 129.6 357.8 116.8L347.8 112.6ZM468.559 206.2C499.159 206.2 522.559 185.2 522.559 149.2C522.559 113.2 497.559 92.8 468.559 92.8C439.359 92.8 414.559 113.4 414.559 149.2C414.559 185 437.559 206.2 468.559 206.2ZM468.559 198.8C451.959 198.8 442.759 182.6 442.759 149.4C442.759 116.4 451.959 100.2 468.559 100.2C484.759 100.2 494.359 116.4 494.359 149.4C494.359 182.6 484.759 198.8 468.559 198.8ZM610.159 116.8C611.359 128 616.959 132.2 624.559 132.2C630.559 132.2 634.359 129.2 636.159 122.8C633.159 105.6 617.359 92.8 596.159 92.8C565.359 92.8 539.359 113.6 539.359 149.8C539.359 185.4 562.359 206.2 592.559 206.2C613.559 206.2 627.959 196.8 636.159 180.2L631.959 178C624.759 187.6 615.159 193 603.159 193C581.559 193 566.959 176.2 566.959 147.2C566.959 117.4 580.359 100.2 599.359 100.2C601.959 100.2 604.559 100.4 607.159 101.2L610.159 116.8ZM678.864 70.6C687.464 70.6 694.664 64.4 694.664 55.8C694.664 46.8 687.464 40.8 678.864 40.8C670.264 40.8 663.064 46.8 663.064 55.8C663.064 64.4 670.264 70.6 678.864 70.6ZM693.064 195.2C692.864 183.8 692.664 167 692.664 156V126L693.064 94.8L690.264 93L649.664 104.4V109.8L665.864 111.4C666.264 121.4 666.464 129 666.464 141.8V156C666.464 167 666.264 183.6 666.064 195L651.464 196.8V203H706.464V196.8L693.064 195.2ZM783.405 182.6C774.205 190.2 769.205 193.2 762.605 193.2C753.005 193.2 746.605 187.6 746.605 175.8C746.605 163.4 752.605 154.2 768.405 148C771.805 146.6 777.405 145 783.405 143.2V182.6ZM825.205 189.2C821.605 194 819.205 195.8 816.205 195.8C811.805 195.8 809.005 192.8 809.005 183.8V132.2C809.005 104.2 798.005 92.8 771.805 92.8C744.005 92.8 727.405 104 724.805 122C726.005 128 730.205 131.2 736.805 131.2C743.605 131.2 749.005 126.8 749.805 115.8L752.605 101.4C756.205 100.6 759.605 100.2 763.005 100.2C778.005 100.2 783.405 106 783.405 127.2V137.4C775.605 139.2 767.605 141.4 761.605 143.4C730.805 153 721.605 162.8 721.605 179.4C721.605 196.2 733.805 206.2 750.605 206.2C765.405 206.2 773.205 200 784.205 188.4C786.805 199.2 793.805 206 806.005 206C816.605 206 823.605 202.2 828.805 192.2L825.205 189.2ZM878.211 195.2C877.811 182.4 877.611 168.6 877.611 156V72.8L878.411 41L875.611 39.2L835.411 47.8V53.4L851.611 54.6V156C851.611 168.6 851.411 182.4 851.011 195L835.611 196.8V203H893.611V196.8L878.211 195.2ZM1010.33 159.8L1001.73 194.8H956.128C955.528 174.6 955.528 154.4 955.528 135.8V122.4C955.528 103.6 955.528 83.6 956.128 63.8L976.128 61.8V54.6H908.328V61.8L927.328 63.6C927.728 83.8 927.728 104 927.728 124V137.4C927.728 154.6 927.728 174.4 927.328 194.2L908.528 196L908.328 203H1020.73L1021.13 159.8H1010.33ZM1065.02 141.6C1066.22 112.4 1077.22 100.2 1089.82 100.2C1102.02 100.2 1110.62 110.6 1110.62 126.8C1110.62 137 1108.42 141.6 1099.22 141.6H1065.02ZM1134.22 149C1135.22 145.6 1135.62 141.8 1135.62 136.6C1135.62 111.4 1119.02 92.8 1091.62 92.8C1063.62 92.8 1037.22 113.4 1037.22 149.4C1037.22 185.8 1060.02 206.2 1091.42 206.2C1111.22 206.2 1126.42 196.8 1134.42 180.4L1130.42 177.6C1123.42 187 1114.82 193 1100.42 193C1081.02 193 1065.82 179.6 1065.02 149H1134.22ZM1213.68 182.6C1204.48 190.2 1199.48 193.2 1192.88 193.2C1183.28 193.2 1176.88 187.6 1176.88 175.8C1176.88 163.4 1182.88 154.2 1198.68 148C1202.08 146.6 1207.68 145 1213.68 143.2V182.6ZM1255.48 189.2C1251.88 194 1249.48 195.8 1246.48 195.8C1242.08 195.8 1239.28 192.8 1239.28 183.8V132.2C1239.28 104.2 1228.28 92.8 1202.08 92.8C1174.28 92.8 1157.68 104 1155.08 122C1156.28 128 1160.48 131.2 1167.08 131.2C1173.88 131.2 1179.28 126.8 1180.08 115.8L1182.88 101.4C1186.48 100.6 1189.88 100.2 1193.28 100.2C1208.28 100.2 1213.68 106 1213.68 127.2V137.4C1205.88 139.2 1197.88 141.4 1191.88 143.4C1161.08 153 1151.88 162.8 1151.88 179.4C1151.88 196.2 1164.08 206.2 1180.88 206.2C1195.68 206.2 1203.48 200 1214.48 188.4C1217.08 199.2 1224.08 206 1236.28 206C1246.88 206 1253.88 202.2 1259.08 192.2L1255.48 189.2ZM1265.48 97.8V104.4H1282.48V156C1282.48 169.2 1282.28 182.2 1281.88 195L1266.48 196.8V203H1328.08V196.8L1309.08 194.6C1308.88 181.8 1308.68 169 1308.68 156V104.4H1336.08V96H1308.48C1307.68 73.2 1309.88 59.6 1316.08 50.4C1317.48 48 1319.68 46 1322.28 44.6L1326.48 50.2C1331.88 59 1337.28 62.2 1344.08 62.2C1352.48 62.2 1357.28 57.2 1357.48 50.4C1355.08 40.8 1345.08 37 1333.88 37C1322.48 37 1310.68 40.6 1300.08 50.8C1290.88 59.8 1284.68 73 1282.68 95.8L1265.48 97.8Z" fill="black"/>
</svg>
